<svg width="20" height="20" viewBox="0 0 20 20" fill="none" xmlns="http://www.w3.org/2000/svg">
<g clip-path="url(#clip0_53_500)">
<path d="M13.9334 16.46L13.4 12.19C13.3245 11.5852 13.0305 11.0288 12.5735 10.6255C12.1165 10.2222 11.5279 9.99977 10.9184 10H9.08172C8.47249 10.0002 7.88428 10.2228 7.42762 10.6261C6.97096 11.0293 6.67726 11.5855 6.60172 12.19L6.06755 16.46C6.03823 16.6946 6.05916 16.9327 6.12895 17.1586C6.19873 17.3845 6.31578 17.593 6.47231 17.7701C6.62883 17.9473 6.82127 18.0892 7.03682 18.1863C7.25238 18.2834 7.48613 18.3335 7.72255 18.3333H12.2792C12.5156 18.3334 12.7492 18.2832 12.9647 18.186C13.1801 18.0889 13.3725 17.947 13.5289 17.7698C13.6853 17.5927 13.8023 17.3843 13.872 17.1584C13.9418 16.9326 13.9627 16.6945 13.9334 16.46V16.46Z" stroke="#B0B0B0" stroke-width="2" stroke-linecap="round" stroke-linejoin="round"/>
<path d="M10 6.66669C11.3807 6.66669 12.5 5.5474 12.5 4.16669C12.5 2.78597 11.3807 1.66669 10 1.66669C8.61929 1.66669 7.5 2.78597 7.5 4.16669C7.5 5.5474 8.61929 6.66669 10 6.66669Z" stroke="#B0B0B0" stroke-width="2"/>
<path d="M3.33464 9.16671C4.25511 9.16671 5.0013 8.42052 5.0013 7.50004C5.0013 6.57957 4.25511 5.83337 3.33464 5.83337C2.41416 5.83337 1.66797 6.57957 1.66797 7.50004C1.66797 8.42052 2.41416 9.16671 3.33464 9.16671Z" stroke="#B0B0B0" stroke-width="2"/>
<path d="M16.6667 9.16671C17.5871 9.16671 18.3333 8.42052 18.3333 7.50004C18.3333 6.57957 17.5871 5.83337 16.6667 5.83337C15.7462 5.83337 15 6.57957 15 7.50004C15 8.42052 15.7462 9.16671 16.6667 9.16671Z" stroke="#B0B0B0" stroke-width="2"/>
<path d="M16.6675 11.6667H16.9225C17.317 11.6666 17.6988 11.8066 17.9998 12.0615C18.3009 12.3165 18.5017 12.67 18.5666 13.0592L18.8441 14.7259C18.884 14.9646 18.8713 15.2092 18.807 15.4426C18.7427 15.676 18.6283 15.8926 18.4719 16.0773C18.3154 16.262 18.1205 16.4104 17.9009 16.5122C17.6812 16.614 17.4421 16.6667 17.2 16.6667H14.1675M3.33414 11.6667H3.07914C2.68461 11.6666 2.30285 11.8066 2.00178 12.0615C1.70072 12.3165 1.49987 12.67 1.43497 13.0592L1.15747 14.7259C1.11765 14.9646 1.13032 15.2092 1.19461 15.4426C1.2589 15.676 1.37326 15.8926 1.52974 16.0773C1.68622 16.262 1.88106 16.4104 2.10072 16.5122C2.32037 16.614 2.55955 16.6667 2.80164 16.6667H5.83414L3.33414 11.6667Z" stroke="#B0B0B0" stroke-width="2" stroke-linecap="round" stroke-linejoin="round"/>
</g>
<defs>
<clipPath id="clip0_53_500">
<rect width="20" height="20" fill="white"/>
</clipPath>
</defs>
</svg>
