<svg width="16" height="16" viewBox="0 0 16 16" fill="none" xmlns="http://www.w3.org/2000/svg">
<g clip-path="url(#clip0_71_1024)">
<path d="M11.0003 2.50001C11.0002 1.91344 11.2064 1.34552 11.5827 0.89562C11.9591 0.445715 12.4817 0.142472 13.059 0.038946C13.6364 -0.0645804 14.2318 0.0382022 14.741 0.329311C15.2502 0.62042 15.6409 1.08132 15.8446 1.63137C16.0484 2.18142 16.0522 2.78559 15.8555 3.33818C15.6587 3.89077 15.274 4.3566 14.7685 4.65415C14.263 4.95171 13.669 5.06204 13.0903 4.96586C12.5117 4.86968 11.9853 4.5731 11.6033 4.12801L4.88527 7.24801C5.03971 7.73745 5.03971 8.26257 4.88527 8.75201L11.6033 11.872C12.0071 11.4023 12.5709 11.0993 13.1855 11.0217C13.8 10.944 14.4215 11.0973 14.9294 11.4517C15.4374 11.8062 15.7957 12.3366 15.9349 12.9401C16.0741 13.5437 15.9843 14.1775 15.6829 14.7186C15.3814 15.2597 14.8898 15.6696 14.3033 15.869C13.7169 16.0683 13.0773 16.0428 12.5085 15.7974C11.9398 15.552 11.4824 15.1043 11.225 14.5409C10.9676 13.9775 10.9285 13.3386 11.1153 12.748L4.39727 9.62801C4.0647 10.0156 3.62142 10.292 3.12704 10.4201C2.63267 10.5482 2.11093 10.5218 1.632 10.3445C1.15308 10.1672 0.739941 9.84744 0.448173 9.4283C0.156404 9.00915 0 8.5107 0 8.00001C0 7.48931 0.156404 6.99087 0.448173 6.57172C0.739941 6.15258 1.15308 5.83284 1.632 5.65553C2.11093 5.47822 2.63267 5.45183 3.12704 5.57992C3.62142 5.70801 4.0647 5.98444 4.39727 6.37201L11.1153 3.25201C11.0388 3.00868 11 2.75507 11.0003 2.50001Z" fill="black"/>
</g>
<defs>
<clipPath id="clip0_71_1024">
<rect width="16" height="16" fill="white"/>
</clipPath>
</defs>
</svg>
